<mxfile host="65bd71144e">
    <diagram id="dSZdC7up5f2rzrFWQckk" name="Page-1">
        <mxGraphModel dx="893" dy="544" grid="1" gridSize="10" guides="1" tooltips="1" connect="1" arrows="1" fold="1" page="1" pageScale="1" pageWidth="850" pageHeight="1100" math="0" shadow="0">
            <root>
                <mxCell id="0"/>
                <mxCell id="1" parent="0"/>
                <mxCell id="2" value="" style="rounded=0;whiteSpace=wrap;html=1;" parent="1" vertex="1">
                    <mxGeometry x="10" width="830" height="440" as="geometry"/>
                </mxCell>
                <mxCell id="3" value="" style="rounded=0;whiteSpace=wrap;html=1;" parent="1" vertex="1">
                    <mxGeometry x="10" y="520" width="830" height="560" as="geometry"/>
                </mxCell>
                <mxCell id="4" value="" style="endArrow=classic;startArrow=classic;html=1;exitX=0.5;exitY=0;exitDx=0;exitDy=0;entryX=0.5;entryY=1;entryDx=0;entryDy=0;" parent="1" source="3" target="2" edge="1">
                    <mxGeometry width="50" height="50" relative="1" as="geometry">
                        <mxPoint x="410" y="370" as="sourcePoint"/>
                        <mxPoint x="460" y="320" as="targetPoint"/>
                    </mxGeometry>
                </mxCell>
                <mxCell id="5" value="" style="rounded=0;whiteSpace=wrap;html=1;" parent="1" vertex="1">
                    <mxGeometry x="20" y="120" width="810" height="310" as="geometry"/>
                </mxCell>
                <mxCell id="6" value="" style="rounded=0;whiteSpace=wrap;html=1;" parent="1" vertex="1">
                    <mxGeometry x="30" y="270" width="790" height="150" as="geometry"/>
                </mxCell>
                <mxCell id="7" value="" style="rounded=0;whiteSpace=wrap;html=1;" parent="1" vertex="1">
                    <mxGeometry x="20" y="740" width="810" height="330" as="geometry"/>
                </mxCell>
                <mxCell id="8" value="ItemList" style="text;html=1;strokeColor=none;fillColor=none;align=center;verticalAlign=middle;whiteSpace=wrap;rounded=0;fontSize=20;" parent="1" vertex="1">
                    <mxGeometry x="315" width="220" height="30" as="geometry"/>
                </mxCell>
                <mxCell id="9" value="Item" style="text;html=1;strokeColor=none;fillColor=none;align=center;verticalAlign=middle;whiteSpace=wrap;rounded=0;fontSize=20;" vertex="1" parent="1">
                    <mxGeometry x="315" y="120" width="220" height="30" as="geometry"/>
                </mxCell>
                <mxCell id="10" value="ItemDetail" style="text;html=1;strokeColor=none;fillColor=none;align=center;verticalAlign=middle;whiteSpace=wrap;rounded=0;fontSize=20;" vertex="1" parent="1">
                    <mxGeometry x="315" y="270" width="220" height="30" as="geometry"/>
                </mxCell>
                <mxCell id="11" value="Cart" style="text;html=1;strokeColor=none;fillColor=none;align=center;verticalAlign=middle;whiteSpace=wrap;rounded=0;fontSize=20;" vertex="1" parent="1">
                    <mxGeometry x="315" y="520" width="220" height="30" as="geometry"/>
                </mxCell>
                <mxCell id="12" value="CartItem" style="text;html=1;strokeColor=none;fillColor=none;align=center;verticalAlign=middle;whiteSpace=wrap;rounded=0;fontSize=20;" vertex="1" parent="1">
                    <mxGeometry x="315" y="740" width="220" height="30" as="geometry"/>
                </mxCell>
                <mxCell id="13" value="The list of all items on the homepage. Each item is given it's own id that can't be changed for tracking purposes. Each item will appear in a little card that has info on an items name, price, quantity, description, and a picture to represent the item. Grants access to NewItemForm and Cart through the use of buttons" style="text;html=1;strokeColor=none;fillColor=none;align=center;verticalAlign=middle;whiteSpace=wrap;rounded=0;fontStyle=0" vertex="1" parent="1">
                    <mxGeometry x="20" y="30" width="810" height="80" as="geometry"/>
                </mxCell>
                <mxCell id="14" value="Individual items in the ItemList. It interacts with several different forms including: ItemList, ItemDetail, EditItemForm, ReusableForm, Cart. Has info on an item's name, price, quantity, description, and a picture to represent the item." style="text;html=1;strokeColor=none;fillColor=none;align=center;verticalAlign=middle;whiteSpace=wrap;rounded=0;" vertex="1" parent="1">
                    <mxGeometry x="30" y="150" width="790" height="110" as="geometry"/>
                </mxCell>
                <mxCell id="15" value="Form that allows you to look at the information of a single item and grants access to the EditItemForm" style="text;html=1;strokeColor=none;fillColor=none;align=center;verticalAlign=middle;whiteSpace=wrap;rounded=0;" vertex="1" parent="1">
                    <mxGeometry x="40" y="305" width="770" height="105" as="geometry"/>
                </mxCell>
                <mxCell id="16" value="Text" style="text;html=1;strokeColor=none;fillColor=none;align=center;verticalAlign=middle;whiteSpace=wrap;rounded=0;" vertex="1" parent="1">
                    <mxGeometry x="20" y="550" width="810" height="180" as="geometry"/>
                </mxCell>
                <mxCell id="17" value="Text" style="text;html=1;strokeColor=none;fillColor=none;align=center;verticalAlign=middle;whiteSpace=wrap;rounded=0;" vertex="1" parent="1">
                    <mxGeometry x="30" y="780" width="790" height="280" as="geometry"/>
                </mxCell>
            </root>
        </mxGraphModel>
    </diagram>
</mxfile>